<svg id="Layer_1" data-name="Layer 1" xmlns="http://www.w3.org/2000/svg" viewBox="0 0 224.24 207.42"><defs><style>.cls-1{fill:tomato;}</style></defs><path class="cls-1" d="M209,78.87a4.5,4.5,0,0,0-4.5,4.5V188.66H19.27V19.45H139.62a4.5,4.5,0,0,0,0-9H14.77a4.51,4.51,0,0,0-4.5,4.5V193.16a4.51,4.51,0,0,0,4.5,4.5H209a4.5,4.5,0,0,0,4.5-4.5V83.37A4.49,4.49,0,0,0,209,78.87Z"/><path class="cls-1" d="M164.59,10a4.5,4.5,0,0,0,0,9H198.3L139.56,77.71a4.5,4.5,0,1,0,6.36,6.36L204.6,25.39V57.51a4.5,4.5,0,0,0,4.5,4.5h.34a4.5,4.5,0,0,0,4.5-4.5V10Z"/><path class="cls-1" d="M48.28,120a18.17,18.17,0,0,1,6.38-4.41,21,21,0,0,1,8.15-1.54,20.87,20.87,0,0,1,6.22.78,21.24,21.24,0,0,1,4.06,1.69,22.91,22.91,0,0,1,2.65,1.7,3.44,3.44,0,0,0,2,.78,2.52,2.52,0,0,0,1.5-.39,3.53,3.53,0,0,0,.89-.92l3.91-5.42a28.57,28.57,0,0,0-9-5.93,30.89,30.89,0,0,0-12.22-2.23,35.17,35.17,0,0,0-13.09,2.36,30,30,0,0,0-10.18,6.62A29.67,29.67,0,0,0,33,123.24a34.75,34.75,0,0,0-2.34,13,38.28,38.28,0,0,0,2.1,12.9,29,29,0,0,0,6.06,10.15,27.61,27.61,0,0,0,9.53,6.65,31.69,31.69,0,0,0,12.57,2.38,32.36,32.36,0,0,0,13.39-2.51,25.36,25.36,0,0,0,9.4-7.25l-4.6-5a2.18,2.18,0,0,0-1.65-.73,2.4,2.4,0,0,0-1,.23,4.13,4.13,0,0,0-.91.63,19.93,19.93,0,0,1-2.89,2.2,15.76,15.76,0,0,1-3.08,1.45,18.75,18.75,0,0,1-3.56.83,33.21,33.21,0,0,1-4.32.26,18.6,18.6,0,0,1-7.47-1.5,17.37,17.37,0,0,1-6-4.32,20.87,20.87,0,0,1-4.06-6.95,27.71,27.71,0,0,1-1.49-9.42A27,27,0,0,1,44.11,127,20.31,20.31,0,0,1,48.28,120Z"/><path class="cls-1" d="M116.47,156.37c-1.83,1.58-4.4,2.36-7.73,2.36a15.48,15.48,0,0,1-5.58-.89,23,23,0,0,1-4-2q-1.71-1.08-3-2A4.17,4.17,0,0,0,93.8,153a2.8,2.8,0,0,0-1.49.41,4.41,4.41,0,0,0-1.16,1L87.77,160a24.68,24.68,0,0,0,4.14,3.38,29.24,29.24,0,0,0,5,2.61,31.3,31.3,0,0,0,5.58,1.67,29.81,29.81,0,0,0,5.9.58,25.12,25.12,0,0,0,9.25-1.58,20.12,20.12,0,0,0,6.84-4.34,18.53,18.53,0,0,0,4.25-6.47,21.66,21.66,0,0,0,1.46-8,16.13,16.13,0,0,0-1.24-6.64,14.28,14.28,0,0,0-3.28-4.62,18.64,18.64,0,0,0-4.64-3.13,52,52,0,0,0-5.32-2.17q-2.71-.93-5.32-1.76a29.8,29.8,0,0,1-4.65-1.87,10.22,10.22,0,0,1-3.27-2.51,5.54,5.54,0,0,1-1.24-3.69,8.15,8.15,0,0,1,.61-3.2,6.43,6.43,0,0,1,1.84-2.49,8.92,8.92,0,0,1,3-1.63,13.71,13.71,0,0,1,4.23-.59,14.47,14.47,0,0,1,4.67.68,20.76,20.76,0,0,1,3.45,1.49c1,.55,1.84,1,2.56,1.5a3.85,3.85,0,0,0,2,.68,2.71,2.71,0,0,0,1.5-.4,3.25,3.25,0,0,0,1.1-1.34l2.87-5.52a23.29,23.29,0,0,0-8-4.86,29.48,29.48,0,0,0-10.25-1.73,23.27,23.27,0,0,0-8.72,1.52,19.6,19.6,0,0,0-6.45,4,17.31,17.31,0,0,0-4,5.78,17.12,17.12,0,0,0-1.36,6.68,18.69,18.69,0,0,0,1.23,7.23,14.54,14.54,0,0,0,3.28,4.89,17.17,17.17,0,0,0,4.65,3.17,45.68,45.68,0,0,0,5.29,2.08c1.8.58,3.56,1.11,5.3,1.61a24.23,24.23,0,0,1,4.65,1.8,9.93,9.93,0,0,1,3.27,2.62,6.3,6.3,0,0,1,1.24,4A8.51,8.51,0,0,1,116.47,156.37Z"/><path class="cls-1" d="M194.23,104.81H184.8a3.74,3.74,0,0,0-2.47.83,4.45,4.45,0,0,0-1.39,1.82l-14.72,38.29a53.87,53.87,0,0,0-2.47,8.82c-.41-1.65-.84-3.22-1.28-4.71s-.92-2.86-1.42-4.11l-14.76-38.29a4.49,4.49,0,0,0-1.43-1.91,3.94,3.94,0,0,0-2.47-.74H133l25.36,62.78h10.55Z"/></svg>