<?xml version="1.0" encoding="utf-8"?>
<!-- Generator: Adobe Illustrator 26.0.1, SVG Export Plug-In . SVG Version: 6.00 Build 0)  -->
<svg version="1.1" id="Layer_1" xmlns="http://www.w3.org/2000/svg" xmlns:xlink="http://www.w3.org/1999/xlink" x="0px" y="0px"
	 viewBox="0 0 282 63" style="enable-background:new 0 0 282 63;" xml:space="preserve">
<style type="text/css">
	.st0{fill:#FFFFFF;}
</style>
<path id="Shape" class="st0" d="M9.3,16.8c0.8,0.8,2,1,2.7,1.6s0.8,1.1,1.6,1.8c1.3,1.2,3.6,2.4,5.2,0.7c-0.5-0.2-1.6-1-3.6-1.9
	c-1.2-0.6-3.2-2-3.3-2.6c0-0.3-0.5-1.4,0.7-3.6c1.3-2.3,4-5,4.3-4.9c0.2,0,0.9,1.2,0.9,1.4c0,0.3,0.5-0.2,0.9-0.8s0.3-1.7-0.2-2
	C18,6.3,17.4,6.2,17,6.3c-2.6,0.2-5.8,1.1-6.5,3.5c-0.6,2.3-0.1,3.1-0.8,3.6c-0.4-0.1-0.6-0.4-0.7-1c-0.1-0.6-0.4-1-0.6-1.2
	c-1.3,1.2-0.8,2.8-0.6,3.7C8.1,15.4,8.5,16,9.3,16.8z M33.6,37c0.7-0.2,2.5,0.5,3.2-0.8c0.2-0.4,0.3-1.1,0.4-1.6
	c0.1-0.4,0.4-1.5,0.3-2c-0.5-1.2-1.1,0-1.3,0.6c-0.5,1.4-0.9,2.9-2.5,2.4c-1.5-0.5-2.9-1-3.5-2.5c-0.2-0.7,0.5-1.6-0.2-2
	c-0.9-0.4-2,0.3-2,1s0.5,1.2,0.1,1.8C27.7,34.4,27,35.1,26,35c-1.7-0.1-2.5-0.9-2.8-1.2c-0.6-0.7-0.8-1.5-1-1.7
	c-0.4-0.3-0.3,1.1-0.1,1.8c0.2,0.8,0.7,1.4,1.4,2c0.8,0.7,2,1,3,0.9c1.5-0.1,1.8-1.1,3.3-1.1c1.3,0,1.9,1.6,1.6,3
	c-0.1,0.9-0.3,2.2-0.9,2.9c-0.7,0.9-1.8,0.4-2.9,0.4c-0.6,0-2.2-0.4-1.6,0.6c0.3,0.5,1.7,0.7,2.2,0.8c0.8,0.1,2.1,0.5,2.9,0
	c0.8-0.4,0.6-1.3,0.9-2.1c0.4,0.9,0.5,2.5,0.6,3.6c0.1,2.5-0.7,5.8,0.3,5.7s0.3-5.8,0.4-7c0.1-1.3,0.4-2.8,0.4-4.3
	C33.5,38.1,32.4,37.3,33.6,37z M11.9,29.1c2.1,0.6,3.5-0.9,4.2-0.8c0.3,0.6,1.8,2,3.9,1.9c0.5,0.1,0.3-0.8,0.6-1.8
	c-0.3-1-2.4,1.5-2.4-0.5c1.1-0.2,2.9-1.7,4.4-3.4c1.2-1.4,3.4-0.8,4.1-0.9c0.6-0.1,1-0.5,1.1-0.8c0.3-0.8-0.4-1.4-0.8-1.1
	c-0.2,0.1,0.4,0.3,0.1,0.7c-0.1,0.2-0.3,0.2-0.6,0.2c-0.4,0-1.9-0.3-2.6-0.5c-1-0.2-1.9-0.1-2.9,0.3c-1.3,0.6-2.3,3.4-3.1,3.6
	c-0.2-0.4,0.1-0.5-0.1-0.8c-0.5-0.2-1.5,0.3-1.4,1.3c-1.9-0.3-2.3-0.4-3.6-0.4c-3.4,0.2-4.1,2.3-4.2,2.7c-0.1,0.6,0.7,1.5,1.5,1
	c-0.5-0.3-0.7-0.5-0.4-0.9C9.4,28.9,10,28.6,11.9,29.1z M51.9,42.4c1.4-0.1,1.5,0.5,2.9-0.1c0.7-0.3,1.5-1.1,1.6-1.9
	c0-0.6,0.1-1.1,0-1.1c-0.3,0-1.3,1.3-1.5,1.8c-0.5,0.8-4.4,0.2-5.6-0.3c-1.2-0.5-2.1-2.6-2.2-3.5c-0.4-2.9-0.7-4-1.4-4.4
	c-1-0.5-5.1-0.2-6.3,0.8c-0.4,0.3-0.6,0.6-0.5,0.7c0.1,0.1,0.4,0.2,0.8,0.1c1.1-0.4,3.8-1,4.9-0.2c0.2,0.2,0.8,1.8,0.4,2.1
	c-0.2,0.2-0.6,0-0.9-0.1C43.3,36.2,43,36.1,43,37c0,0.7,0.3,0.5,1,1c0.5,0.4-0.1,0.6-0.1,1.3c-0.1,1.2,0.6,2.3-0.1,3.5
	c-0.4,0.6-3.6,0.3-3.3,1.1c0.8,0,3.9,0.7,4.3,0.1c0.9-1.2-0.6-3.3,1.2-3.6c0.9-0.2,1.7,0.4,2,1.9c0.4,2-0.1,4,0.9,5.1
	c0.7,0.8,4-0.5,4.8-0.9c0.3-0.1,0.8-0.7,0.7-0.7c-0.7-0.2-4,0.6-4.3,0.3C49.1,45,49.9,42.6,51.9,42.4z M13.9,34
	c0-0.1-0.2-0.2-0.3-0.1c-1.8,0.7-2.8,1.8-4.9,2.2c-0.2-0.5,0-1.6-0.7-1.6c-0.1,0.2-0.4,1.2-0.5,1.8c-0.2,0.3-1.2-1.1-1.5-2.2
	c-0.3-0.9-1.5-0.9-1.5-0.3c3.4,4.6,2.2,8.4,5.8,8.5c0.2-0.3-2-2.4-1.3-3.3C11.8,38.3,13.2,36.2,13.9,34z M40.2,21.1
	c-1.2,0.2-4.3,1-5.5,1.6c-1.6,0.8-2.7,1.8-2.9,1.8c-0.4,0-1.1-0.9-1.3-0.8c-0.2,0.1-0.2,1.3-0.3,1.6c-0.1,0.3-4.8,0.8-6.6,2
	c-0.2,0.1-0.8,0.4-1.1,1.4c0,0.1-0.3,1,0.4,1.8c1.4,1.7,2.6,1.5,3,1.2c0.3-0.3-3-3.9,1.9-2.9c1.8,0.3,3.3-0.9,3.7-1
	c1.2,0.8,0.8,5.3,2,5c0.9-0.3,1.5-1.3,1.5-1.8c0.1-1-1.1-2.9-2.4-3.9c0.1-0.2,0.6-1.4,2-2c3.5-1.6,7.2-0.7,7.3-1
	c0.2-0.6,1-2.6,0.2-3C41.6,20.8,41,21,40.2,21.1z M23.9,11.6c-0.3,0.2-1.1,1-0.8,1.1c0.3,0.1,1.1-0.2,1.5-0.2
	c1.7,0.3,1.9,2.6,4.6,2.3c2.4-0.3,3.3-1.2,4.8-1.8c0.9-0.4,2.8-0.5,4.2-0.2c0.9,0.2,1.9,0.1,2.6-0.2c0.6-0.3,1-0.9,0.7-1.1
	c-0.2-0.1-0.5,0.5-1,0.5c-0.5,0.1-1-0.1-1.3-0.3c-0.2-0.2-0.5-0.5-0.8-1.4c-0.5-1.2-0.7,0.3-1.5,0.8c-1.6,1-5.2,1.6-5.6,1.3
	c0.4-2,6.1-1.5,5.5-4.8c-0.2-1.4-3.5-2-3.9-2.2c1.7,3.6-2,5.1-2.8,5.1S27.8,8.8,26.7,7c-4.8,1.1-0.5,3.4,0.3,5.2
	C25.6,12.3,24.7,11.1,23.9,11.6z M19.9,4.3c1.4,0,2.5-1.1,3.9-1.4c0.7-0.2,2.4-0.1,2.4,0.5c0.1,0.5-2.5,1.5-3.3,2
	c-1.3,1-1.7,1.8-2.1,2.6c-0.1,0.3-0.7,1.6-0.4,1.9c0.5,0.5,1.2-2.4,3.1-3.7s2.8-1.1,4.3-1.2c0.4,0.6,1.2,1,1.7,1.4
	c0.3,0.2,0.9,0.1,1.3-0.5c0.1-0.1,0.1-0.6-0.1-1.1C30.5,4.1,30,4,30.3,3.6s3.5-0.3,4-0.2c2.1,0.3,3.3,1.9,4.2,3.4
	c0.6,0.9,1,2.3,1.2,2.6c0.5,0.9,0.6,0.7,0.5-0.2c-0.1-1.5-0.9-3.5-1.6-4.7c-0.4-0.6-1.3-1.6-0.3-1.7c0.8-0.1,2,0.4,2.7,0.6
	c0.8,0.3,4.6,1.9,4.3,1.2C45,3.7,39.7,2,38,1.6c-2.9-0.7-6-0.7-8.9-0.6c-2.8,0.1-6.7,1-9.4,2.1c-0.6,0.3-1.8,1-1.3,1.2
	C18.5,4.4,19.5,4.3,19.9,4.3z M43.5,6.1c-0.6,0.5,2.8,0.6,4.1,1.1C49,7.8,50,8.7,51,10.5c-1.6-0.2-4.5-0.7-5.4-0.9
	c-3.2-0.5-4-3.9-4.4-4.1c-0.6-0.3-0.5,0.2-0.3,0.8c0.3,0.8,1.2,4.2,4.1,4.6c2.9,0.5,4.2,1,5.8,1.6c2.2,0.9,3.3,2.1,3.6,2.8
	c0.3,0.8,0.4,1.3,0.3,2.3c-0.2,1.1-0.6,4.5-0.2,6.2c0.1,0.6,1.6,2.9,2.7,3.4c1.2,0.4,2.8,0.6,2,0.1c-0.3-0.2-0.5-0.4-0.8-0.5
	c-0.6-0.5-1.1-0.9-1.5-1.4c-2.2-2.6-1.3-5.2-1-4.8c0.5,0.8,0,1,0.2,1.8c0.1,0.8,0.7,0.9,1.3,0.8c0.8-0.1,0.1-1.3,0.3-1.9
	c0.6-2.2,1.8,2,2.5,5.6c0.7,2.8,0.6,4.3,0.9,4.4c0.3,0.1,0.4-2.1,0.2-3.4c-0.2-1.4-0.4-2.7-0.7-3.7c-0.3-1.4-1-3.6-1.4-4.5
	c-1-2.2-1.4-3-2.6-4.8c-1.7-2.5-3.5-4.5-4.8-5.7c-2.2-2-3.2-2.5-4-2.9C47.2,5.9,44.3,5.4,43.5,6.1z M21.1,41.5
	c1.3-1.2,3.6-0.1,6-1.4c1.1-0.6,2.6-1.4,2-1.9c-0.2-0.2-1.6-0.8-2.2-0.3c-0.6,0.4-2.2,1-3.4,1.2c-1.3,0.2-1.7,0-1.9-0.2
	c-0.2-0.2-0.4-1.4-1.3-2.1c-0.6-0.4-0.3,0.7-1,0.5c-0.5-0.2-1.5-0.2-1.6-2.3c-0.1-1.4,1.9-2.4,1.5-3.1c-0.6-0.8-4-0.2-4,0.8
	c0,1.8,0.2,4.3,1.3,5.6c0.8,0.9,2.9,1.3,1.7,2.3c-0.3,0.2-0.4,0-1.4,0.3c-1.3,0.6,0.8,3.4,3.1,2.7c0.3-0.1,0.8-0.2,1-0.5
	c0.1-0.2,0-0.4-0.1-0.6c0-0.1-0.1-0.2-0.1-0.4C20.9,41.7,21,41.6,21.1,41.5z M38,51c2-1.1,4.2-0.5,5.4-1.2c1.2-0.8,2-3.7,2.1-4.1
	c-1.2,0.4-4.8,3-5.8,2.8c0.5-0.6,1.1-1.8,1.3-2.1c-0.6-0.6-1.5,0.5-2.1,0.7c-2.3-2.1,2.3-7.6,1.3-10c0.2-0.4-3.1,1.3-3.9,2.5
	c-1.5,2.5-1.3,6,0.6,9.5c-0.2,0.6-2.4,1.6-2.6,2.2C35.2,52.4,36.6,51.5,38,51z M53.2,49.5c-0.7,0.5-2.8,1.2-3.4,1.2
	c-1.4-0.2-2.4-1.8-2.5-2.3c0-0.2-0.4-0.9-0.6-0.9c-0.2,0.1-0.4,1-0.4,1.1c-0.2,0.9,1.4,3,1.8,3.8c0.2,0.4-0.2,0.9-1.4,2.2
	c-0.2,0.2-1.3,0.7-2.2,1.1c-1.3,0.5-3.1,0-2.9,0.9c0.1,0.2,5.3,1.1,7.1,0c0.5-0.3,0.8-0.8,1.7-3c0.5,0.2,0.2,1.5,0.3,1.4
	c0.9-0.6,2-1.5,0.8-2.5c-0.2-0.2,1,0.2,1.6-0.1s1.5-1.1,2.3-2.1c0.8-1.2,2.7-4.1,2.2-4.3C57.2,45.8,54.3,48.8,53.2,49.5z M2.7,33.9
	c-0.1-0.8-0.6-4.5-0.2-5.4c0.2,0,2.1,2.3,3.3,3.4c0.6,0.5,2.7,1.2,3.5,1.2c1.3,0,2.9-0.4,3.8-0.8c0.5-0.3,1.4-1,1.2-1.2
	c-0.4-0.5-1.5,0.6-2.2,0.7c-1.7,0.3-3-0.1-4-0.6c-0.6-0.3-4.2-2.6-4.8-4.3c0-0.1,0.2-0.8,0.7-1.1c0.7-0.3,1.8,0.7,3.8,0.4
	c2.5-0.4,6.4-2.3,6.8-2.5c0.2-0.1,0.7-0.4,0.3-0.6c-0.5-0.3-3.1,0.9-5,1.2c-1.9,0.3-3.4,0-3.7-0.2c-0.4-0.2-1.2-1,0.7-0.9
	c0.8,0,1.7-1.9,0.7-2.4c-0.9-0.4-2.1,1.2-2.8,0.9c-0.7-0.3,0.3-1.6,0.5-1.8c0.7-0.6,2.8-1.1,3.9-0.4c0.4,0.3,0.8,1.4,1,1.2
	c0.1-0.1-0.2-1.3-0.4-1.7c-0.6-1-2.4-2.3-3.6-2c-0.9,0.3-2.1,1-2.4,1.8c-0.4,0.6-0.9,1.8-1.2,2.5c-0.6,1.8-1.2,4.1-1.4,6
	C1,28.5,0.8,30.6,1,34.8c0,1.2,0.4,3.6,1,4.5c0.3,0.5,0.8,1.5,1.1,1.5c0.2,0,0.9-1.9,0.9-2.4c0.1-0.7-0.1-0.9-0.3-1.5
	C3.5,36.1,2.8,35.2,2.7,33.9z M11.4,52.1c0.5-0.3,5.1,2,5.7,2.3c2.1,1.1,5.3,1.9,5.8,1.6c0.6-0.3-2.7-2.2-4.5-2.8
	c-1.3-0.5-3.1-0.1-7.4-4.1c-0.6-0.6-1.2-0.9-0.6-1.8c0.3-0.5,1.9-2.2,2.5-3.9c0.4-1,0.8-3.3,1-3.9c0.4-1.1-0.4-0.6-1-0.1
	c-0.8,0.6-1.1,5-3,6.7c-0.7,0.6-0.8-0.9-1.3-1.3c-0.2-0.2-0.7-0.3-1.2,0c-0.3,0.1,0.1,1,0.2,1.3c0.2,0.8-1,0.3-1,0.3
	c-1.2-1-1-4.7-0.8-5.8c0.1-0.4,0.1-1.1-0.8-0.8c-0.2,0.1-0.6,1.1-0.6,1.3c-0.5,2.3,0.1,4,0.3,5C4.9,47.5,6.1,49,6.8,50
	c0.8,1.1,1.8,2.2,3.1,3.7c1.2,1.2,5.1,4.2,6.8,4.9c1.2,0.5,1.3,0.2,0.6-0.9C17,56.9,10.5,52.7,11.4,52.1z M50.9,15.2
	c0.3,0.1,1.1,0.6,1.2,0.5c0.1,0-0.4-1.6-1.6-1.6c-1.2,0-1.9,0.7-2.3,0.7c-0.8-0.2-2-1.3-3.4-1.6c-0.7-0.1-2.9,0.4-3,2.8
	c0,0.4,2.2-0.7,3.9,0c1.4,0.6,1.9,1.4,2.1,2c0.2,0.8-2.2,2-3.2,3.6c-0.4,0.7-1,2.1-0.2,3.1s1.5,1.9,2.1,1.2c0.6-0.7-0.3-3.7,1.7-6.1
	c0.4-0.5,0.5-0.7,1-0.6s1.3,0.5,1.8,0.9c1.1,0.9,0.6,3.4,1.1,3.1c0.5-0.1,1.4-2.5,0.4-4.8c-0.6-1.4-1.8-2.1-2.2-2.6
	C50.1,15.8,50.6,15.1,50.9,15.2z M19,17.8c-1.7-0.5-2.8-3.2-3.7-2.5c-0.3,0.2,0.4,1.2,0.7,1.5c0.8,0.9,1.9,1.5,3.1,2
	c2.4,0.8,5.8,1.4,6.5,1.5c3.9,0.6,7.5,0.7,11.5,0c0.6-0.1,1.9-0.4,2.6-0.7c0.9-0.5,0.9-1.4,0.8-1.5c-0.3-0.2-1,0.8-1.7,1
	c-1.3,0.5-0.5,0.3-2.6,0.6c-1.1,0.2-3.6,0-3.8-0.2c-0.3-0.2,0.7-0.4,1.1-0.5c0.7-0.2,1.5-0.5,2.3-0.9c1.1-0.6,2.5-1.3,3-2.2
	c0.4-0.7,0.5-1.7,0-1.9c-0.1-0.1-0.6,0.9-1.2,1.7c-0.8,1.2-2.3,2.1-3.9,2.3C33,18.1,33,17.7,33,17.4s0.2-0.6-0.1-1
	c-0.2-0.2-0.7-0.5-1.1-0.2s-0.5,0.5-0.8,0.7c-0.8,1-1.5,1.4-2.5,1.3c-2.6-0.2-5.8-2.3-7.5-3.7c-2.7-2.2-2.5-3.8-2.7-3.7
	c-0.6,0.2-0.3,1.7,0.2,2.6c0.4,0.9,1.1,1.4,2.2,2.4c0.9,0.7,2.4,2,2.2,2.1C22.5,18.3,19.7,18,19,17.8z M41.4,58.8
	c-2.2,1.4-3.7,0.8-5,0.2c-1.1-0.5,0.2-2.4,1-3.6c1.1-1.5,5.8-1.9,5.6-2.3c-0.3-0.4-1.5-0.5-2.1-0.4c-0.9,0-2.9,0.5-3.6,0.7
	c-1.8,0.6-2.5,2.8-3,4.6c-0.4,1.3-2.3,0-2.5-1c-0.5-1.7-0.5-4.1-0.8-5.4c-0.6-2.5-0.7-3-0.9-2.6c-0.3,0.5-0.6,1-0.4,3
	s1.1,3.9,0.1,5.5c-0.6,1-1-0.1-1.8-0.2c-0.9,0-1.2,1.2-0.4,1.6c0.7,0.3,1.6,0.3,0.4,1c-0.4,0.3-2.4,1.3-4.6-0.2
	c-1.4-1.1-3.5-0.7-3.6-0.4c-0.3,1.4,7.9,3,12.9,2.8c1.8-0.1,3.4-0.3,4.6-0.5c0.8-0.1,3.4-0.6,5.2-1.5c1.1-0.5,3.7-1.5,3.5-1.6
	C45.3,58.2,42,58.4,41.4,58.8z M59.2,29.3c-1.1-0.9-2.6-1-3.4-0.9c-0.7,0.1-1.3,0.8-0.5,0.9c0.7,0.2,1.8,0.3,2.7,1.4
	c0.3,0.3,0.9,1.5,1,2.5s-0.1,2.4-1.5,3.3c-0.4,0-1,0-2.1-0.4c-1-0.3-1.3-1.1-0.4-2.5c0.5-0.8,2.1-1.3,1.4-1.6
	c-0.8-0.3-2.2,0-2.8,0.6c-2.1,1.9,0.7,4.2,0.8,4.4c-0.1,0.3-2.8,1-1.9,3.4c1.6-1.9,4.5-2.8,5.2-2.5c0.7,1.2,0.6,2.9,0.4,4
	c-0.3,1-0.5,1.4-0.9,1.7c-0.3,0.3-0.9,0.5-1.1,0.3c-0.3-0.2-0.4,0.3-0.3,0.6c0.1,0.3,0.7,1.2,1.7,0.5c1.3-0.9,1.8-1.8,2.1-2.3
	s0.7-1.2,1.1-2.2c0.2-0.6-0.4-1.3-0.4-1.6c0-0.2,0.5-0.2,1.1-0.7c0.1-0.7-0.5-0.6-0.6-1.3C63,35.6,60.7,30.4,59.2,29.3z M50.6,25
	c0.5,0.2,1.8,1.5,2.5,1.7c0.6,0.2,1,0.1,0.9-0.5c0-0.4-0.6-0.8-1.3-0.9c-1.9-0.4-3.4-2.8-4-2c-0.7,1,0.9,4,0.8,5
	c0,0.5-0.3,0.5-0.8,0.7c-0.6,0.1-2.1-0.2-2.8-0.3c-1.7-0.4-1.8-1-3.1-1.9c-0.9-0.6-2.1-1.1-3.4-1c-1,0.1-1.2,0.3-1.5,0.6
	c-0.5,0.5-0.3,1.2,0.1,1.7c0.5,0.6,2,0.8,2.3,0.2c0.1-0.1-0.5,0.2-1.1-0.2c-0.3-0.2-0.7-0.5-0.5-0.9s1.2-0.6,2.4-0.1
	c0.6,0.3,2,1.9,2,1.9c-0.6,0.4-1.7,0.7-2.7,0.6c-0.7-0.1-1.8,0-2.9-0.6c-1.5-0.8-2.7-3.3-2.7-2c0,0.9,1.9,3,3,3.5
	c1.5,0.6,2.2,0.7,3.7,0.6c1.5,0,2.9-0.3,4.4-0.5c2-0.2,2.4-0.1,2.9,0.8c0.8,1.6,1.3,4.4,1,5.8c-0.2,0.8-0.5,1.6-0.3,1.7
	c0.4,0.2,0.8-1,1-1.5c0.5-1.6,0-4.2-0.5-6c-0.3-0.9,0.3-1.1,0.6-1.5c0.4-0.4,0.8,1.3,1.6,1.2c0.6-0.3,1.1-1.5-0.4-2.4l-0.7,0.2
	C51.1,28.1,49,24.4,50.6,25z M22.2,53.7c0.2,0.5,1.8,1.5,3,1.7c1.8,0.3,2.9-1.3,2.6-1.5c-0.5-0.4-1.2,0.8-2.6,0.5
	c-0.5-0.1-1.6-0.8-1.7-1.2c-0.3-0.9,0.1-1.4,1-1.6c0.6-0.1,1.1,0.8,1.6,0.7c0.6-0.1,0.6-1.5,0-1.7c-0.2-0.1-0.5-0.3-0.8-0.4
	c-0.4-0.2,0-0.9,0.4-1.3c0.7-0.6,2.3-0.7,1.7-2.5c-0.4-1.3-4.3-2.4-4.6-1.9c0.3,0.8,1.7,0.8,2.3,1.5c0.5,0.6,0.6,1,0.4,1.5
	c-0.2,0.4-0.8,0.6-1.5,0.7c-0.7,0.1-2.5-1.5-3.3-1.7c-0.5-0.1-2,0.6-2.5,0.3c-0.2-0.1-1.8-1.3-2.3-2c-0.5-0.8-0.8-2.4-1.3-1.9
	c0,0.4,0.2,2,0.4,2.4c1,2.1,4.4,2.9,4.6,3.6c-1.1,0.5-1.8,0.9-2.4,0.7c-1.3-0.4-1.8-0.6-2.6-1.2c-0.5-0.4-0.8-1.4-1.2-1.3
	c-0.1,0,0.2,1.5,0.3,1.8c0.3,0.4,2,1.6,3.1,2c1.2,0.4,1.5,0.5,2.4,0.1c1.2-0.6,2.3-1.9,2.9-1.5C23,49.5,21.9,53.2,22.2,53.7z"/>
<path class="st0" d="M100.8,42.5c0.4,0.1,0.8,0.3,1.4,0.4c0.5,0.1,1.1,0.3,1.7,0.4c0.6,0.1,1.3,0.2,2,0.3s1.4,0.1,2.1,0.1
	c1.5,0,2.7-0.2,3.9-0.5c1-0.3,1.9-0.8,2.6-1.4c0.7-0.6,1.2-1.3,1.5-2.2s0.5-1.8,0.5-2.9c0-1.1-0.2-2-0.5-2.7s-0.8-1.4-1.3-1.9
	s-1.2-0.9-1.9-1.3c-0.7-0.3-1.4-0.7-2.2-0.9c-0.7-0.3-1.5-0.5-2.2-0.7s-1.3-0.5-1.9-0.8c-0.5-0.3-1-0.6-1.3-1s-0.5-0.9-0.5-1.5
	c0-0.5,0.1-0.9,0.2-1.2c0.2-0.4,0.4-0.7,0.7-1s0.8-0.5,1.3-0.6s1.2-0.2,1.9-0.2c0.9,0,1.6,0.1,2.2,0.3s1.2,0.5,1.7,0.9l0.7,3h1.5
	v-5.3c-0.4-0.1-0.9-0.2-1.3-0.3c-0.5-0.1-1-0.2-1.5-0.2c-0.5-0.1-1.1-0.1-1.6-0.2c-0.5,0-1.1-0.1-1.6-0.1c-2.5,0-4.6,0.5-5.9,1.5
	s-2,2.5-2,4.5c0,1.1,0.2,2,0.5,2.7s0.8,1.4,1.3,1.9c0.6,0.5,1.2,0.9,1.9,1.3c0.7,0.3,1.4,0.6,2.2,0.9c0.7,0.3,1.5,0.5,2.2,0.7
	s1.3,0.5,1.9,0.8s1,0.7,1.3,1.1c0.3,0.4,0.5,1,0.5,1.6s-0.1,1.1-0.3,1.6c-0.2,0.5-0.4,0.9-0.8,1.2s-0.9,0.6-1.5,0.8
	s-1.3,0.3-2.2,0.3c-0.5,0-1-0.1-1.5-0.2s-1-0.2-1.4-0.4s-0.8-0.4-1.2-0.6c-0.4-0.2-0.6-0.5-0.9-0.7l-0.7-3.6h-1.4L100.8,42.5
	L100.8,42.5L100.8,42.5z M93.3,22.7l2.8-0.4V21h-11v1.2l2.8,0.4v19L85.1,42v1.2h11V42l-2.8-0.4C93.3,41.6,93.3,22.7,93.3,22.7z
	 M77.9,22.7l2.8-0.4V21h-11v1.2l2.8,0.4v19L69.7,42v1.2h11V42l-2.8-0.4C77.9,41.6,77.9,22.7,77.9,22.7z"/>
<g>
	<path class="st0" d="M125.4,21.6h2v7.1h-2V21.6z"/>
	<path class="st0" d="M129.2,21.6h1.8l2.9,3.8v-3.8h2v7.1h-1.7l-3-3.9v3.9h-2V21.6z"/>
	<path class="st0" d="M139.2,23.3h-2.1v-1.7h6.3v1.7h-2.1v5.4h-2L139.2,23.3L139.2,23.3z"/>
	<path class="st0" d="M144.5,21.6h5.7v1.7h-3.8v1.1h3.4V26h-3.4v1h3.8v1.7h-5.8v-7.1H144.5z"/>
	<path class="st0" d="M151.9,21.6h3.4c1.1,0,1.8,0.3,2.3,0.8c0.4,0.4,0.6,1,0.6,1.7l0,0c0,1.1-0.6,1.8-1.5,2.2l1.7,2.5h-2.3
		l-1.4-2.2l0,0h-0.8v2.2h-2V21.6z M155.2,25c0.7,0,1.1-0.3,1.1-0.8l0,0c0-0.6-0.4-0.8-1.1-0.8h-1.3V25H155.2z"/>
	<path class="st0" d="M159.7,21.6h1.8l2.9,3.8v-3.8h2v7.1h-1.7l-3-3.9v3.9h-2V21.6z"/>
	<path class="st0" d="M170.6,21.5h1.9l3,7.2h-2.1l-0.5-1.3h-2.7l-0.5,1.3h-2.1L170.6,21.5z M172.3,25.9l-0.8-2l-0.8,2H172.3z"/>
	<path class="st0" d="M177.6,23.3h-2.1v-1.7h6.3v1.7h-2.1v5.4h-2L177.6,23.3L177.6,23.3z"/>
	<path class="st0" d="M182.9,21.6h2v7.1h-2V21.6z"/>
	<path class="st0" d="M186.3,25.2L186.3,25.2c0-2.1,1.6-3.7,3.9-3.7s3.8,1.6,3.8,3.7l0,0c0,2-1.7,3.7-3.9,3.7
		C188,28.9,186.3,27.2,186.3,25.2z M192,25.2L192,25.2c0-1.1-0.7-1.9-1.8-1.9s-1.8,0.9-1.8,1.9l0,0c0,1,0.7,1.9,1.8,1.9
		S192,26.2,192,25.2z"/>
	<path class="st0" d="M195.5,21.6h1.8l2.9,3.8v-3.8h2v7.1h-1.7l-3-3.9v3.9h-2V21.6z"/>
	<path class="st0" d="M206.3,21.5h1.9l3,7.2h-2.1l-0.5-1.3h-2.7l-0.5,1.3h-2.1L206.3,21.5z M208.1,25.9l-0.8-2l-0.8,2H208.1z"/>
	<path class="st0" d="M212.4,21.6h2V27h3.5v1.7h-5.4v-7.1H212.4z"/>
</g>
<g>
	<path class="st0" d="M223.6,21.6h2v7.2h-2V21.6z"/>
	<path class="st0" d="M227.4,21.6h1.9l2.9,3.8v-3.8h2v7.2h-1.7l-3.1-3.9v3.9h-2L227.4,21.6L227.4,21.6z"/>
	<path class="st0" d="M235.4,27.7l1.1-1.3c0.7,0.6,1.5,0.9,2.3,0.9c0.5,0,0.8-0.2,0.8-0.5l0,0c0-0.3-0.2-0.5-1.2-0.7
		c-1.5-0.3-2.7-0.8-2.7-2.3l0,0c0-1.3,1.1-2.3,2.8-2.3c1.2,0,2.2,0.3,2.9,1l-1,1.4c-0.7-0.5-1.4-0.7-2-0.7c-0.5,0-0.7,0.2-0.7,0.5
		l0,0c0,0.3,0.2,0.5,1.2,0.7c1.6,0.4,2.7,0.9,2.7,2.2l0,0c0,1.5-1.2,2.3-2.9,2.3C237.5,28.8,236.3,28.4,235.4,27.7z"/>
	<path class="st0" d="M244.7,23.3h-2.2v-1.7h6.3v1.7h-2.1v5.4h-2V23.3z"/>
	<path class="st0" d="M250.1,21.6h2v7.2h-2V21.6z"/>
	<path class="st0" d="M255.4,23.3h-2.2v-1.7h6.3v1.7h-2.1v5.4h-2V23.3z"/>
	<path class="st0" d="M260.7,25.6v-4h2v4c0,1,0.5,1.5,1.3,1.5s1.3-0.5,1.3-1.5v-4h2v4c0,2.3-1.3,3.3-3.4,3.3
		C262,28.9,260.7,27.8,260.7,25.6z"/>
	<path class="st0" d="M270.6,23.3h-2.2v-1.7h6.3v1.7h-2.1v5.4h-2L270.6,23.3L270.6,23.3z"/>
	<path class="st0" d="M276,21.6h5.8v1.7H278v1.1h3.4V26H278v1h3.8v1.7H276V21.6z"/>
</g>
<g>
	<path class="st0" d="M124.9,35.4h5.7v1.7h-3.7v1.2h3.4V40h-3.4v2.5h-2V35.4z"/>
	<path class="st0" d="M131.5,39L131.5,39c0-2.1,1.6-3.7,3.9-3.7s3.8,1.6,3.8,3.7l0,0c0,2-1.7,3.7-3.9,3.7
		C133.2,42.7,131.5,41,131.5,39z M137.2,39L137.2,39c0-1.1-0.7-1.9-1.8-1.9s-1.8,0.9-1.8,1.9l0,0c0,1,0.7,1.9,1.8,1.9
		S137.2,40,137.2,39z"/>
	<path class="st0" d="M140.7,35.4h3.4c1.1,0,1.8,0.3,2.3,0.8c0.4,0.4,0.6,1,0.6,1.7l0,0c0,1.1-0.6,1.8-1.5,2.2l1.7,2.5H145l-1.4-2.2
		l0,0h-0.8v2.2h-2v-7.2H140.7z M144,38.8c0.7,0,1.1-0.3,1.1-0.8l0,0c0-0.6-0.4-0.8-1.1-0.8h-1.3v1.7h1.3V38.8z"/>
</g>
<g>
	<path class="st0" d="M151.5,41.7l1.1-1.3c0.7,0.6,1.5,0.9,2.3,0.9c0.5,0,0.8-0.2,0.8-0.5l0,0c0-0.3-0.2-0.5-1.2-0.7
		c-1.5-0.3-2.7-0.8-2.7-2.3l0,0c0-1.3,1.1-2.3,2.8-2.3c1.2,0,2.2,0.3,2.9,1l-1,1.4c-0.7-0.5-1.4-0.7-2-0.7c-0.5,0-0.7,0.2-0.7,0.5
		l0,0c0,0.3,0.2,0.5,1.2,0.7c1.6,0.4,2.7,0.9,2.7,2.2l0,0c0,1.5-1.2,2.3-2.9,2.3C153.6,42.9,152.4,42.5,151.5,41.7z"/>
	<path class="st0" d="M159.1,39.6v-4h2v4c0,1,0.5,1.5,1.3,1.5s1.3-0.5,1.3-1.5v-4h2v4c0,2.3-1.3,3.3-3.4,3.3
		C160.4,42.9,159.1,41.8,159.1,39.6z"/>
	<path class="st0" d="M166.8,41.7l1.1-1.3c0.7,0.6,1.5,0.9,2.3,0.9c0.5,0,0.8-0.2,0.8-0.5l0,0c0-0.3-0.2-0.5-1.2-0.7
		c-1.5-0.3-2.7-0.8-2.7-2.3l0,0c0-1.3,1.1-2.3,2.8-2.3c1.2,0,2.2,0.3,2.9,1l-1,1.4c-0.7-0.5-1.4-0.7-2-0.7c-0.5,0-0.7,0.2-0.7,0.5
		l0,0c0,0.3,0.2,0.5,1.2,0.7c1.6,0.4,2.7,0.9,2.7,2.2l0,0c0,1.5-1.2,2.3-2.9,2.3C168.9,42.9,167.7,42.5,166.8,41.7z"/>
	<path class="st0" d="M176.2,37.3H174v-1.7h6.3v1.7h-2.1v5.4h-2V37.3z"/>
	<path class="st0" d="M183.3,35.5h1.9l3,7.2h-2.1l-0.5-1.3h-2.8l-0.5,1.3h-2.1L183.3,35.5z M185,39.9l-0.8-2l-0.8,2H185z"/>
	<path class="st0" d="M189.3,35.6h2v7.2h-2V35.6z"/>
	<path class="st0" d="M193.1,35.6h1.9l2.9,3.8v-3.8h2v7.2h-1.7l-3.1-3.9v3.9h-2L193.1,35.6L193.1,35.6z"/>
	<path class="st0" d="M204,35.5h1.9l3,7.2h-2.1l-0.5-1.3h-2.8l-0.5,1.3h-2L204,35.5z M205.8,39.9l-0.8-2l-0.8,2H205.8z"/>
	<path class="st0" d="M210.1,35.6h3.7c0.9,0,1.5,0.2,2,0.6c0.3,0.3,0.5,0.7,0.5,1.2l0,0c0,0.8-0.5,1.3-1.1,1.6
		c0.9,0.3,1.4,0.8,1.4,1.7l0,0c0,1.2-1,2-2.7,2h-3.7L210.1,35.6L210.1,35.6z M213.3,38.4c0.6,0,0.9-0.2,0.9-0.6l0,0
		c0-0.4-0.3-0.6-0.9-0.6H212v1.3h1.3V38.4z M213.6,41.2c0.6,0,1-0.2,1-0.7l0,0c0-0.4-0.3-0.6-1-0.6H212v1.3H213.6z"/>
	<path class="st0" d="M218,35.6h2v7.2h-2V35.6z"/>
	<path class="st0" d="M221.8,35.6h2V41h3.5v1.7h-5.5V35.6z"/>
	<path class="st0" d="M228.4,35.6h2v7.2h-2V35.6z"/>
	<path class="st0" d="M233.8,37.3h-2.2v-1.7h6.3v1.7h-2.1v5.4h-2V37.3z"/>
	<path class="st0" d="M241.4,40.1l-2.7-4.5h2.3l1.5,2.6l1.5-2.6h2.2l-2.7,4.4v2.7h-2v-2.6C241.5,40.1,241.4,40.1,241.4,40.1z"/>
</g>
<g>
	<path class="st0" d="M126.8,49.6h1.9l3,7h-2.1l-0.5-1.2h-2.7l-0.5,1.2h-2L126.8,49.6z M128.5,53.9l-0.8-2l-0.8,2H128.5z"/>
	<path class="st0" d="M132,53.5v-3.9h2v3.9c0,1,0.5,1.5,1.3,1.5s1.3-0.5,1.3-1.4v-3.9h2v3.9c0,2.3-1.3,3.2-3.3,3.2
		C133.2,56.7,132,55.7,132,53.5z"/>
	<path class="st0" d="M139.1,55.6l1.1-1.3c0.7,0.5,1.5,0.8,2.3,0.8c0.5,0,0.8-0.2,0.8-0.5l0,0c0-0.3-0.2-0.4-1.2-0.7
		c-1.5-0.3-2.6-0.8-2.6-2.2l0,0c0-1.3,1-2.2,2.7-2.2c1.2,0,2.1,0.3,2.9,0.9l-1,1.4c-0.6-0.5-1.3-0.7-2-0.7c-0.5,0-0.7,0.2-0.7,0.4
		l0,0c0,0.3,0.2,0.5,1.2,0.7c1.6,0.3,2.6,0.9,2.6,2.2l0,0c0,1.4-1.1,2.3-2.8,2.3C141.2,56.7,140,56.3,139.1,55.6z"/>
	<path class="st0" d="M147.7,51.3h-2.1v-1.7h6.1v1.7h-2.1v5.3h-1.9V51.3z"/>
	<path class="st0" d="M152.6,49.6h3.3c1.1,0,1.8,0.3,2.3,0.8c0.4,0.4,0.6,0.9,0.6,1.6l0,0c0,1.1-0.6,1.8-1.4,2.1l1.7,2.4h-2.2
		l-1.4-2.1l0,0h-0.8v2.1h-1.9v-6.9H152.6z M155.8,53c0.7,0,1-0.3,1-0.8l0,0c0-0.5-0.4-0.8-1-0.8h-1.3V53H155.8z"/>
	<path class="st0" d="M162.1,49.6h1.9l3,7h-2.1l-0.5-1.2h-2.7l-0.5,1.2h-2L162.1,49.6z M163.8,53.9l-0.8-2l-0.8,2H163.8z"/>
	<path class="st0" d="M167.6,49.6h1.9v5.3h3.4v1.7h-5.3L167.6,49.6L167.6,49.6z"/>
	<path class="st0" d="M173.8,49.6h1.9v7h-1.9V49.6z"/>
	<path class="st0" d="M179.5,49.6h1.9l3,7h-2.1l-0.5-1.2H179l-0.5,1.2h-2L179.5,49.6z M181.2,53.9l-0.8-2l-0.8,2H181.2z"/>
</g>
</svg>
