<?xml version="1.0" encoding="utf-8"?>
<!-- Generator: Adobe Illustrator 26.0.1, SVG Export Plug-In . SVG Version: 6.00 Build 0)  -->
<svg version="1.1" id="Layer_1" xmlns="http://www.w3.org/2000/svg" xmlns:xlink="http://www.w3.org/1999/xlink" x="0px" y="0px"
	 viewBox="0 0 309.8 130.8" style="enable-background:new 0 0 309.8 130.8;" xml:space="preserve">
<style type="text/css">
	.st0{clip-path:url(#SVGID_00000013187474571562479130000016580532982389688222_);}
	.st1{clip-path:url(#SVGID_00000019649497136582074390000009901809380692799901_);}
	.st2{clip-path:url(#SVGID_00000075136101590419847610000000647626241267217295_);}
	.st3{clip-path:url(#SVGID_00000023965232005124228680000010677833636590165925_);}
	.st4{fill:#5CBA47;}
	.st5{opacity:8.000000e-02;}
	.st6{clip-path:url(#SVGID_00000030478670459400676810000003529644859695560872_);}
	.st7{fill:none;}
	.st8{fill:#FFFFFF;}
</style>
<g>
	<defs>
		<rect id="SVGID_1_" x="-29.9" y="-122.3" width="375" height="382.5"/>
	</defs>
	<clipPath id="SVGID_00000040570333110759003340000014420190896663951766_">
		<use xlink:href="#SVGID_1_"  style="overflow:visible;"/>
	</clipPath>
	<g style="clip-path:url(#SVGID_00000040570333110759003340000014420190896663951766_);">
		<g>
			<defs>
				<rect id="SVGID_00000048492917419779637340000008928771785106913724_" x="-29.9" y="-122.3" width="375" height="375"/>
			</defs>
			<clipPath id="SVGID_00000105399545759406384020000015995770907140115603_">
				<use xlink:href="#SVGID_00000048492917419779637340000008928771785106913724_"  style="overflow:visible;"/>
			</clipPath>
			<g style="clip-path:url(#SVGID_00000105399545759406384020000015995770907140115603_);">
				<g>
					<defs>
						<rect id="SVGID_00000003094219711345486790000017577175353415171458_" x="216.9" y="0" width="82.5" height="36"/>
					</defs>
					<clipPath id="SVGID_00000088830023851524746260000008849989513505428879_">
						<use xlink:href="#SVGID_00000003094219711345486790000017577175353415171458_"  style="overflow:visible;"/>
					</clipPath>
					<g style="clip-path:url(#SVGID_00000088830023851524746260000008849989513505428879_);">
						<g>
							<defs>
								<rect id="SVGID_00000017480708169076866260000004076253938965805722_" x="216.9" width="82.5" height="36"/>
							</defs>
							<clipPath id="SVGID_00000160892589898907450370000018232507345172407473_">
								<use xlink:href="#SVGID_00000017480708169076866260000004076253938965805722_"  style="overflow:visible;"/>
							</clipPath>
							<g style="clip-path:url(#SVGID_00000160892589898907450370000018232507345172407473_);">
								<polygon class="st4" points="250.1,18.2 217,16.9 217,19.1 								"/>
								<path class="st4" d="M262.3,36c-18.8,0-31-18-31-18s12.2-18,31-18s37,18,37,18S281.1,36,262.3,36z"/>
								<g class="st5">
									<g>
										<defs>
											<rect id="SVGID_00000039840566618894232470000012097798192126219185_" x="231" y="-0.1" width="68.4" height="18.5"/>
										</defs>
										<clipPath id="SVGID_00000111876781957056573430000005132904618276086664_">
											<use xlink:href="#SVGID_00000039840566618894232470000012097798192126219185_"  style="overflow:visible;"/>
										</clipPath>
										<g style="clip-path:url(#SVGID_00000111876781957056573430000005132904618276086664_);">
											<path d="M299.3,18c0,0-18.2-18-37-18c-18.7,0-31,18-31,18H299.3z"/>
										</g>
									</g>
								</g>
							</g>
						</g>
					</g>
				</g>
			</g>
		</g>
	</g>
</g>
<rect x="-29.9" y="-122.3" class="st7" width="375" height="375"/>
<g>
	<polygon class="st8" points="67.4,93.3 86.9,35 76.7,35 62.7,82.4 48.5,35 38.8,35 24.7,82.4 10.6,35 0,35 19.3,93.3 29.5,93.3 
		43.5,47.8 57.3,93.3 	"/>
	<path class="st8" d="M97.6,67.8c1.1-7.1,6-11.5,13-11.5c7.2,0,12,4.3,12.3,11.5H97.6z M110.5,48.6c-13.2,0.2-22.4,9.2-22.4,22.6
		s9,22.4,22.7,22.4c7.7,0,14-2.8,18.3-7.5l-5.1-5.4c-3.3,3.3-7.8,5.2-12.5,5.2c-6.7,0.2-12.6-4.5-13.8-11.2h33.5
		C132.4,58.8,126.1,48.6,110.5,48.6L110.5,48.6z"/>
	<path class="st8" d="M150.8,43.8h13c9,0,14.1,3.7,14.1,11.3c0,7.9-5.1,11.8-14.1,11.8h-13V43.8z M141,34.9v58.3h9.8V75.8h13.4
		c14.7,0,23.1-7.7,23.1-20.8c0-12.7-8.4-19.9-23.1-19.9L141,34.9z"/>
	<rect x="196.1" y="31.5" class="st8" width="9.6" height="61.8"/>
	<path class="st8" d="M233.3,86.1c-5.3,0-8.6-2.6-8.6-6.6c0-4.2,2.9-5.9,9.2-5.9h12v4.1C245.4,82.5,240.1,86.1,233.3,86.1z
		 M245.9,93.3h9.4l-0.1-29.1c-0.1-9.7-6.5-15.6-17.9-15.6c-8.4,0-12.9,1.9-19.1,5.6l3.9,6.7c4.4-3,8.8-4.5,13.1-4.5
		c7,0,10.6,3.3,10.6,8.9v1.3h-13.4c-10.7,0.1-16.8,5.2-16.8,13.3c0,7.8,6,13.7,15.6,13.7c6.4,0,11.5-1.9,14.7-5.8V93.3z"/>
	<path class="st8" d="M293.3,48.6c-7.5,0-13.2,2.7-16.3,8.8V49h-9.6v44.3h9.6V69.8c0.7-6.9,5.2-12,12.6-12.1
		c6.6,0,10.6,4.1,10.6,10.7v24.9h9.6V65.8C309.8,55.1,303.6,48.6,293.3,48.6z"/>
	<polygon class="st8" points="92,110.3 92,107.8 77.5,107.8 77.5,130.6 80.1,130.6 80.1,120.8 90.8,120.8 90.8,118.3 80.1,118.3 
		80.1,110.3 	"/>
	<path class="st8" d="M108.9,110.2c5,0,9,4,9,9s-4,9-9,9s-9-4-9-9S103.9,110.2,108.9,110.2z M108.9,107.7c-6.7,0-12,5-12,11.5
		c-0.3,6.6,4.8,12.2,11.5,12.5s12.2-4.8,12.5-11.5c0.3-6.6-4.8-12.2-11.5-12.5C109.2,107.7,109.1,107.7,108.9,107.7z"/>
	<path class="st8" d="M131.4,120.9v-10.6h6.1c4.1,0,6.5,1.8,6.5,5.2s-2.4,5.4-6.5,5.4L131.4,120.9z M143.8,130.6h3l-5.3-7.8
		c3.3-1.1,5.1-3.6,5.1-7.4c0-4.9-3.3-7.7-9-7.7h-8.7v22.8h2.6v-7.2h6.1c0.5,0,1,0,1.5-0.1L143.8,130.6z"/>
	<polygon class="st8" points="171.1,110.3 171.1,107.8 155.7,107.8 155.7,130.6 171.6,130.6 171.6,128.1 158.3,128.1 158.3,120.3 
		169.8,120.3 169.8,117.8 158.3,117.8 158.3,110.3 	"/>
	<path class="st8" d="M186.9,107.8c-4.7,0-7.9,2.3-7.9,5.9c0,8.2,12.8,5,12.8,11c0,2.2-2.1,3.5-5.3,3.5c-2.8-0.1-5.6-1.2-7.6-3.2
		l-1.2,2.4c2.4,2.2,5.5,3.5,8.7,3.5c4.9,0,8.2-2.4,8.2-6.3c0-8.3-12.8-5.2-12.8-11.1c0-1.9,1.9-3,4.9-3c2.2,0,4.4,0.7,6.3,1.9
		l1.1-2.4C192,108.5,189.5,107.8,186.9,107.8z"/>
	<polygon class="st8" points="217.7,110.3 217.7,107.8 200.2,107.8 200.2,110.3 207.6,110.3 207.6,130.6 210.2,130.6 210.2,110.3 	
		"/>
	<path class="st8" d="M231.5,107.8c-4.7,0-7.9,2.3-7.9,5.9c0,8.2,12.8,5,12.8,11c0,2.2-2,3.5-5.3,3.5c-2.8-0.1-5.6-1.2-7.6-3.2
		l-1.2,2.4c2.4,2.2,5.5,3.5,8.7,3.5c4.9,0,8.2-2.4,8.2-6.3c0-8.3-12.8-5.2-12.8-11.1c0-1.9,1.9-3,4.9-3c2.2,0,4.4,0.7,6.3,1.9
		l1.1-2.4C236.6,108.5,234.1,107.8,231.5,107.8z"/>
</g>
</svg>
